<svg xmlns="http://www.w3.org/2000/svg" width="28" height="28" viewBox="0 0 18 18">
  <g fill="none" fill-rule="evenodd">
    <path d="M9 3.48c1.69 0 3.11.79 4.04 1.62l2.76-2.76C14.54.78 12.03 0 9 0 5.48 0 2.44 1.99.96 4.9l3.57 2.77C5.22 5.18 6.96 3.48 9 3.48z" fill="#EA4335"/>
    <path d="M17.64 9.2c0-.74-.06-1.28-.18-1.84H9v3.34h4.96c-.1.83-.64 2.08-1.84 2.92l2.84 2.2c1.7-1.57 2.68-3.87 2.68-6.62z" fill="#4285F4"/>
    <path d="M3.54 10.47A5.42 5.42 0 0 1 3.2 9c0-.51.09-1.02.24-1.47L.96 4.9A9 9 0 0 0 0 9c0 1.45.35 2.83.96 4.1l2.58-2.63z" fill="#FBBC05"/>
    <path d="M9 18c2.43 0 4.48-.8 5.97-2.18l-2.84-2.2c-.76.53-1.78.9-3.13.9-2.4 0-4.44-1.62-5.17-3.83L.96 13.1C2.44 16 5.48 18 9 18z" fill="#34A853"/>
  </g>
</svg>
